<svg width="680" height="145" xmlns="http://www.w3.org/2000/svg">
 <metadata id="metadata8">image/svg+xml</metadata>
 <defs>
  <clipPath id="clipPath26" clipPathUnits="userSpaceOnUse">
   <path id="path28" d="m-3.2,-595.2749c0,0 841.88965,0 841.88965,0c0,0 0,595.2749 0,595.2749c0,0 -841.88965,0 -841.88965,0c0,0 0,-595.2749 0,-595.2749z"/>
  </clipPath>
 </defs>
 <g>
  <title>background</title>
  <rect fill="none" id="canvas_background" height="147" width="682" y="-1" x="-1"/>
 </g>
 <g>
  <title>Tecnobit</title>
  <g transform="matrix(1.25,0,0,-1.25,0,744.09378) " id="g10">
   <g transform="translate(-154.39999389648438,224) scale(1,-1) " id="g12">
    <path fill="#ffffff" fill-opacity="0" fill-rule="nonzero" id="path14" d="m651.42793,-294.44336c0,0 -12.37207,12.36914 -12.37207,12.36914c0,0 -12.36816,-12.36914 -12.36816,-12.36914c0,0 12.36816,-12.36621 12.36816,-12.36621c0,0 12.37207,12.36621 12.37207,12.36621zm-28.19824,0.01c0,0 0,12.5957 0,12.5957c0,0 15.71679,15.71094 15.71679,15.71094c0,0 15.71094,-15.71094 15.71094,-15.71094c0,0 0,-12.5957 0,-12.5957c0,0 -15.71094,-15.71094 -15.71094,-15.71094c0,0 -15.71679,15.71094 -15.71679,15.71094z"/>
    <path fill="#ffffff" fill-opacity="0" fill-rule="nonzero" id="path16" d="m639.05586,-360.33984c0,0 12.37207,12.37011 12.37207,12.37011c0,0 -12.37207,12.37012 -12.37207,12.37012c0,0 -12.36816,-12.37012 -12.36816,-12.37012c0,0 12.36816,-12.37011 12.36816,-12.37011zm15.60156,24.97363c0,0 0,-12.59668 0,-12.59668c0,0 -15.71094,-15.70899 -15.71094,-15.70899c0,0 -15.71679,15.70899 -15.71679,15.70899c0,0 0,12.59668 0,12.59668c0,0 15.71679,15.71387 15.71679,15.71387c0,0 15.71094,-15.71387 15.71094,-15.71387z"/>
    <path fill="#ffffff" fill-opacity="0" fill-rule="nonzero" id="path18" d="m677.70234,-321.20703c0,0 -12.37207,12.37207 -12.37207,12.37207c0,0 -12.36816,-12.37207 -12.36816,-12.37207c0,0 12.36816,-12.36426 12.36816,-12.36426c0,0 12.37207,12.36426 12.37207,12.36426zm-28.19726,0.01c0,0 0,12.59571 0,12.59571c0,0 15.71289,15.71386 15.71289,15.71386c0,0 15.71289,-15.71386 15.71289,-15.71386c0,0 0,-12.59571 0,-12.59571c0,0 -15.71289,-15.70996 -15.71289,-15.70996c0,0 -15.71289,15.70996 -15.71289,15.70996z"/>
    <path fill="#ffffff" fill-opacity="0" fill-rule="nonzero" id="path20" d="m612.51484,-308.83496c0,0 -12.37109,-12.37207 -12.37109,-12.37207c0,0 12.37109,-12.36328 12.37109,-12.36328c0,0 12.36719,12.36328 12.36719,12.36328c0,0 -12.36719,12.37207 -12.36719,12.37207zm15.59864,-12.36231c0,0 -15.71387,-15.70996 -15.71387,-15.70996c0,0 -15.7168,15.70996 -15.7168,15.70996c0,0 0,12.59571 0,12.59571c0,0 15.7168,15.71386 15.7168,15.71386c0,0 15.71387,-15.71386 15.71387,-15.71386c0,0 0,-12.59571 0,-12.59571z"/>
    <g id="g22">
     <g clip-path="url(#clipPath26)" id="g24">
      <path fill="#e41d25" fill-rule="nonzero" id="path30" d="m680.93086,-307.00156c0,0 -15.71289,15.71386 -15.71289,15.71386c0,0 -15.71289,-15.71386 -15.71289,-15.71386c0,0 0,-12.59571 0,-12.59571c0,0 15.71289,-15.70996 15.71289,-15.70996c0,0 15.71289,15.70996 15.71289,15.70996c0,0 0,12.59571 0,12.59571zm-26.27344,26.76367c0,0 -15.71094,15.71094 -15.71094,15.71094c0,0 -15.71679,-15.71094 -15.71679,-15.71094c0,0 0,-12.59668 0,-12.59668c0,0 15.71679,-15.70996 15.71679,-15.70996c0,0 15.71094,15.70996 15.71094,15.70996c0,0 0,12.59668 0,12.59668zm-57.97461,-26.76367c0,0 0,-12.59571 0,-12.59571c0,0 15.7168,-15.70996 15.7168,-15.70996c0,0 15.71387,15.70996 15.71387,15.70996c0,0 0,12.59571 0,12.59571c0,0 -15.71387,15.71386 -15.71387,15.71386c0,0 -15.7168,-15.71386 -15.7168,-15.71386zm26.54688,-39.36133c0,0 15.71679,-15.70899 15.71679,-15.70899c0,0 15.71094,15.70899 15.71094,15.70899c0,0 0,12.59668 0,12.59668c0,0 -15.71094,15.71387 -15.71094,15.71387c0,0 -15.71679,-15.71387 -15.71679,-15.71387c0,0 0,-12.59668 0,-12.59668zm15.57617,-22.15918c-30.49512,0 -55.21875,24.72266 -55.21875,55.22266c0,30.49414 24.72363,55.21972 55.21875,55.21972c30.49805,0 55.22266,-24.72558 55.22266,-55.21972c0,-30.5 -24.72461,-55.22266 -55.22266,-55.22266"/>
      <path fill="#e41d25" fill-rule="nonzero" id="path32" d="m600.14375,-321.20703c0,0 12.37012,12.37207 12.37012,12.37207c0,0 12.36718,-12.37207 12.36718,-12.37207c0,0 -12.36718,-12.36426 -12.36718,-12.36426c0,0 -12.37012,12.36426 -12.37012,12.36426z"/>
      <path fill="#e41d25" fill-rule="nonzero" id="path34" d="m639.05586,-282.07422c0,0 12.37207,-12.36914 12.37207,-12.36914c0,0 -12.37207,-12.36621 -12.37207,-12.36621c0,0 -12.36816,12.36621 -12.36816,12.36621c0,0 12.36816,12.36914 12.36816,12.36914z"/>
      <path fill="#e41d25" fill-rule="nonzero" id="path36" d="m651.42793,-347.96973c0,0 -12.37207,-12.36914 -12.37207,-12.36914c0,0 -12.36816,12.36914 -12.36816,12.36914c0,0 12.36816,12.37012 12.36816,12.37012c0,0 12.37207,-12.37012 12.37207,-12.37012z"/>
      <path fill="#e41d25" fill-rule="nonzero" id="path38" d="m665.33027,-308.83496c0,0 12.37207,-12.37207 12.37207,-12.37207c0,0 -12.37207,-12.36328 -12.37207,-12.36328c0,0 -12.36816,12.36328 -12.36816,12.36328c0,0 12.36816,12.37207 12.36816,12.37207z"/>
      <path fill="#e41d25" fill-rule="nonzero" id="path98" d="m244.46113,-311.63184c0,0 -32.45703,7.45801 -32.45703,7.45801c0,0 0,-7.87109 0,-7.87109c0,-5.39844 2.3042,-7.70508 7.70606,-7.70508c0,0 17.46093,0 17.46093,0c5.39893,0 7.70313,2.30664 7.68409,7.89258c0,0 -0.0811,0.10449 -0.39405,0.22558m12.43506,-2.90722c0,-7.86133 -3.42431,-17.23047 -19.7251,-17.23047c0,0 -17.46093,0 -17.46093,0c-12.90186,0 -19.72705,6.81933 -19.72705,19.72461c0,0 0,17.45508 0,17.45508c0,12.90722 6.82519,19.72949 19.72705,19.72949c0,0 17.46093,0 17.46093,0c12.90088,0 19.7251,-6.82227 19.7251,-19.72949c0,0 -12.02197,0 -12.02197,0c0,5.40234 -2.3042,7.70605 -7.70313,7.70605c0,0 -17.46093,0 -17.46093,0c-4.39698,0 -6.70899,-1.50098 -7.42725,-4.94629c0,0 35.23193,-8.01855 35.23193,-8.01855c4.27539,-0.90137 9.38135,-4.17871 9.38135,-14.69043"/>
      <path fill="#e41d25" fill-rule="nonzero" id="path100" d="m301.33613,-331.76953c0,0 -17.458,0 -17.458,0c-12.90381,0 -19.72413,6.81933 -19.72413,19.72461c0,0 0,17.45508 0,17.45508c0,12.90722 6.82032,19.72851 19.72413,19.72851c0,0 17.458,0 17.458,0c12.90821,0 19.72803,-6.82129 19.72803,-19.72851c0,0 -12.01904,0 -12.01904,0c0,5.40234 -2.30811,7.70605 -7.70899,7.70605c0,0 -17.458,0 -17.458,0c-5.396,0 -7.70508,-2.30371 -7.70508,-7.70605c0,0 0,-17.45508 0,-17.45508c0,-5.39942 2.30908,-7.7041 7.70508,-7.7041c0,0 17.458,0 17.458,0c5.40088,0 7.70899,2.30468 7.70899,7.7041c0,0 12.01904,0 12.01904,0c0,-12.90528 -6.81982,-19.72461 -19.72803,-19.72461"/>
      <path fill="#e41d25" fill-rule="nonzero" id="path102" d="m358.24531,-331.76953c0,0 -29.70019,0 -29.70019,0c0,0 0,56.9082 0,56.9082c0,0 12.01904,0 12.01904,0c0,0 0,-44.88769 0,-44.88769c0,0 17.68115,0 17.68115,0c10.36133,0 15.1875,4.82422 15.1875,15.18652c0,0 0,29.70117 0,29.70117c0,0 12.01953,0 12.01953,0c0,0 0,-29.70117 0,-29.70117c0,-17.80078 -9.40625,-27.20703 -27.20703,-27.20703"/>
      <path fill="#e41d25" fill-rule="nonzero" id="path104" d="m430.12031,-286.88379c0,0 -17.45898,0 -17.45898,0c-5.39844,0 -7.70606,-2.30371 -7.70606,-7.70605c0,0 0,-17.45508 0,-17.45508c0,-5.39942 2.30762,-7.70508 7.70606,-7.70508c0,0 17.45898,0 17.45898,0c5.39844,0 7.70703,2.30566 7.70703,7.70508c0,0 0,17.45508 0,17.45508c0,5.40234 -2.30859,7.70605 -7.70703,7.70605m0,-44.88574c0,0 -17.45898,0 -17.45898,0c-12.90625,0 -19.72363,6.81933 -19.72363,19.72461c0,0 0,17.45508 0,17.45508c0,12.90722 6.81738,19.72851 19.72363,19.72851c0,0 17.45898,0 17.45898,0c12.90723,0 19.72364,-6.82129 19.72364,-19.72851c0,0 0,-17.45508 0,-17.45508c0,-12.90528 -6.81641,-19.72461 -19.72364,-19.72461"/>
      <path fill="#e41d25" fill-rule="nonzero" id="path106" d="m494.51191,-286.88379c0,0 -17.46093,0 -17.46093,0c-5.39844,0 -7.70215,-2.30371 -7.70215,-7.70605c0,0 0,-25.16016 0,-25.16016c0,0 25.16308,0 25.16308,0c5.39844,0 7.70215,2.30566 7.70215,7.70508c0,0 0,17.45508 0,17.45508c0,5.40234 -2.30371,7.70605 -7.70215,7.70605m0,-44.88574c0,0 -25.16308,0 -25.16308,0c0,0 0,-22.44336 0,-22.44336c0,0 -12.02051,0 -12.02051,0c0,0 0,59.62305 0,59.62305c0,12.90722 6.81934,19.72851 19.72266,19.72851c0,0 17.46093,0 17.46093,0c12.90528,0 19.72364,-6.82129 19.72364,-19.72851c0,0 0,-17.45508 0,-17.45508c0,-12.90528 -6.81836,-19.72461 -19.72364,-19.72461"/>
      <path fill="#e41d25" fill-rule="nonzero" id="path108" d="m521.72188,-274.86133c0,0 12.01855,0 12.01855,0c0,0 0,-56.90722 0,-56.90722c0,0 -12.01855,0 -12.01855,0c0,0 0,56.90722 0,56.90722z"/>
      <path fill="#e41d25" fill-rule="nonzero" id="path110" d="m527.72773,-354.31641c-3.8623,0 -6.0791,2.21387 -6.0791,6.08301c0,3.86133 2.2168,6.0791 6.0791,6.0791c3.86329,0 6.08204,-2.21777 6.08204,-6.0791c0,-3.86914 -2.21875,-6.08301 -6.08204,-6.08301"/>
      <path fill="#e41d25" fill-rule="nonzero" id="path112" d="m568.42988,-286.88379c-5.39941,0 -7.70605,-2.30371 -7.70605,-7.70605c0,0 0,-25.16016 0,-25.16016c0,0 12.46972,0 12.46972,0c0,0 0,-12.01953 0,-12.01953c0,0 -12.46972,0 -12.46972,0c0,0 0,-22.54688 0,-22.54688c0,0 -12.02149,0 -12.02149,0c0,0 0,22.54688 0,22.54688c0,0 -7.48046,0 -7.48046,0c0,0 0,12.01953 0,12.01953c0,0 7.48046,0 7.48046,0c0,0 0,25.16016 0,25.16016c0,12.90722 6.82227,19.72851 19.72754,19.72851c0,0 7.25684,0 7.25684,0c0,0 0,-12.02246 0,-12.02246c0,0 -7.25684,0 -7.25684,0z"/>
      <path fill="#e41d25" fill-rule="nonzero" id="path114" d="m185.46797,-286.88379c-5.3999,0 -7.70606,-2.30371 -7.70606,-7.70605c0,0 0,-25.16016 0,-25.16016c0,0 12.46924,0 12.46924,0c0,0 0,-12.01953 0,-12.01953c0,0 -12.46924,0 -12.46924,0c0,0 0,-22.54688 0,-22.54688c0,0 -12.02295,0 -12.02295,0c0,0 0,22.54688 0,22.54688c0,0 -7.479,0 -7.479,0c0,0 0,12.01953 0,12.01953c0,0 7.479,0 7.479,0c0,0 0,25.16016 0,25.16016c0,12.90722 6.82422,19.72851 19.72901,19.72851c0,0 7.25683,0 7.25683,0c0,0 0,-12.02246 0,-12.02246c0,0 -7.25683,0 -7.25683,0z"/>
     </g>
    </g>
   </g>
  </g>
 </g>
</svg>